<mxfile host="app.diagrams.net" modified="2023-12-02T09:40:48.135Z" agent="Mozilla/5.0 (Macintosh; Intel Mac OS X 10_15_7) AppleWebKit/537.36 (KHTML, like Gecko) Chrome/119.0.0.0 Safari/537.36" version="22.1.5" etag="gPGJl5-QKJipAZ-dIk9p" type="github">
  <diagram name="Page-1" id="UQ5FmmVdHIWoGwXlTuCI">
    <mxGraphModel>
      <root>
        <mxCell id="0" />
        <mxCell id="1" parent="0" />
      </root>
    </mxGraphModel>
  </diagram>
</mxfile>
